HIERARCHY
ROOT joint_Root
{
	OFFSET 0.0 0.0 0.0
	CHANNELS 6 Xposition Yposition Zposition Zrotation Xrotation Yrotation 
	JOINT Hips
	{
		OFFSET -17.1583 93.1646 452.98
		CHANNELS 6 Xposition Yposition Zposition Zrotation Xrotation Yrotation 
		JOINT Spine
		{
			OFFSET 15.7357 0.0 0.0
			CHANNELS 6 Xposition Yposition Zposition Zrotation Xrotation Yrotation 
			JOINT Chest
			{
				OFFSET 8.98455 -0.406207 0.0
				CHANNELS 6 Xposition Yposition Zposition Zrotation Xrotation Yrotation 
				JOINT Neck
				{
					OFFSET 16.3773 0.0 0.0
					CHANNELS 6 Xposition Yposition Zposition Zrotation Xrotation Yrotation 
					JOINT Head
					{
						OFFSET 6.45672 0.0 0.0
						CHANNELS 6 Xposition Yposition Zposition Zrotation Xrotation Yrotation 
						End Site
						{
							OFFSET 0.0 0.0 0.0
						}
					}
				}
				JOINT Shoulder_L
				{
					OFFSET 12.9942 -0.242716 4.98039
					CHANNELS 6 Xposition Yposition Zposition Zrotation Xrotation Yrotation 
					JOINT UpperArm_L
					{
						OFFSET 5.34809 0.0 0.0
						CHANNELS 6 Xposition Yposition Zposition Zrotation Xrotation Yrotation 
						JOINT LowerArm_L
						{
							OFFSET 24.3286 1.87007e-05 0.0
							CHANNELS 6 Xposition Yposition Zposition Zrotation Xrotation Yrotation 
							JOINT Hand_L
							{
								OFFSET 22.2916 0.0 0.0
								CHANNELS 6 Xposition Yposition Zposition Zrotation Xrotation Yrotation 
								End Site
								{
									OFFSET 0.0 0.0 0.0
								}
							}
						}
					}
				}
				JOINT Shoulder_R
				{
					OFFSET 12.9945 -0.242716 -4.98039
					CHANNELS 6 Xposition Yposition Zposition Zrotation Xrotation Yrotation 
					JOINT UpperArm_R
					{
						OFFSET -5.34813 0.0 0.0
						CHANNELS 6 Xposition Yposition Zposition Zrotation Xrotation Yrotation 
						JOINT LowerArm_R
						{
							OFFSET -24.3289 0.000322201 0.0
							CHANNELS 6 Xposition Yposition Zposition Zrotation Xrotation Yrotation 
							JOINT Hand_R
							{
								OFFSET -22.2915 -0.000108084 0.0
								CHANNELS 6 Xposition Yposition Zposition Zrotation Xrotation Yrotation 
								End Site
								{
									OFFSET 0.0 0.0 0.0
								}
							}
						}
					}
				}
			}
		}
		JOINT UpperLeg_L
		{
			OFFSET -2.19248 -6.46944 0.0
			CHANNELS 6 Xposition Yposition Zposition Zrotation Xrotation Yrotation 
			JOINT LowerLeg_L
			{
				OFFSET 39.0811 0.0 -1.23785e-05
				CHANNELS 6 Xposition Yposition Zposition Zrotation Xrotation Yrotation 
				JOINT Foot_L
				{
					OFFSET 40.9854 0.0 -1.26872e-05
					CHANNELS 6 Xposition Yposition Zposition Zrotation Xrotation Yrotation 
					JOINT Toes_L
					{
						OFFSET 11.7543 0.0 0.0
						CHANNELS 6 Xposition Yposition Zposition Zrotation Xrotation Yrotation 
						End Site
						{
							OFFSET 0.0 0.0 0.0
						}
					}
				}
			}
		}
		JOINT UpperLeg_R
		{
			OFFSET -2.19251 6.46944 0.0
			CHANNELS 6 Xposition Yposition Zposition Zrotation Xrotation Yrotation 
			JOINT LowerLeg_R
			{
				OFFSET -39.0811 -0.00228153 -0.0401928
				CHANNELS 6 Xposition Yposition Zposition Zrotation Xrotation Yrotation 
				JOINT Foot_R
				{
					OFFSET -40.9854 0.0 0.0
					CHANNELS 6 Xposition Yposition Zposition Zrotation Xrotation Yrotation 
					JOINT Toes_R
					{
						OFFSET -11.7543 0.0 0.0
						CHANNELS 6 Xposition Yposition Zposition Zrotation Xrotation Yrotation 
						End Site
						{
							OFFSET 0.0 0.0 0.0
						}
					}
				}
			}
		}
	}
}
MOTION
Frames:	4
Frame Time:	0.0333333
0.000000 0.000000 0.000000 0.000000 0.000000 -0.000000 -1.411600 93.314000 -0.501484 88.053300 3.132090 0.963573 15.735700 0.000005 -0.000001 67.213300 85.870500 -58.772900 8.984550 -0.406207 -0.000000 0.182792 -3.753260 16.882100 16.377300 -0.000001 -0.000001 0.718785 2.691840 7.411350 6.456720 -0.000001 -0.000000 -16.844900 -1.641160 18.876200 12.994200 -0.242716 4.980390 -88.328200 -3.464870 -64.223000 5.348090 -0.000007 -0.000001 -38.180400 -57.464500 -77.732300 24.328600 0.000019 0.000005 0.347106 20.548400 -0.978254 22.291600 -0.000001 0.000005 25.512500 4.614760 14.721000 12.994500 -0.242716 -4.980390 88.964200 2.518990 -67.639900 -5.348130 -0.000001 -0.000004 -65.051800 0.352980 -10.700100 -24.328900 0.000322 -0.000009 -0.121693 -0.324524 -20.384200 -22.291500 -0.000108 -0.000004 8.376320 5.249890 1.435670 -2.192480 -6.469440 -0.000000 -172.669000 -11.058500 -1.156880 39.081100 -0.000007 -0.000012 -0.002237 0.008692 14.431300 40.985400 -0.000006 -0.000013 -0.676711 18.350300 -67.848500 11.754300 -0.000000 0.000003 -0.000849 0.180861 -9.240360 -2.192510 6.469440 -0.000001 177.962000 10.818200 -178.316000 -39.081100 -0.002282 -0.040193 0.006692 -0.018236 10.420500 -40.985400 0.000008 0.000006 -4.758920 7.198810 -66.055700 -11.754300 -0.000006 -0.000006 -0.010346 0.273869 -5.446100
0.000000 0.000000 0.000000 0.000000 0.000000 -0.000000 -1.448610 93.302200 -0.443926 88.062300 3.024450 0.981073 15.735700 0.000005 -0.000001 67.669900 85.860300 -59.153900 8.984550 -0.406207 -0.000000 0.226514 -3.701850 17.034000 16.377300 -0.000001 -0.000001 0.720768 2.454250 7.734230 6.456720 -0.000001 -0.000000 -16.867400 -1.722030 18.732500 12.994200 -0.242716 4.980390 -88.183300 -3.826260 -64.576800 5.348090 -0.000007 -0.000001 -41.460800 -57.503900 -77.637700 24.328600 0.000019 0.000005 0.001437 16.683300 -0.000001 22.291600 -0.000001 0.000005 12.108900 4.421820 18.044900 12.994500 -0.242716 -4.980390 88.962600 2.507690 -67.516300 -5.348130 -0.000001 -0.000004 -64.996300 0.014022 -10.454300 -24.328900 0.000322 -0.000009 -0.025766 -0.067854 -19.966700 -22.291500 -0.000108 -0.000004 8.575570 5.249890 1.435770 -2.192480 -6.469440 -0.000000 -172.632000 -11.130400 -1.082340 39.081100 -0.000007 -0.000012 -0.002521 0.009786 14.441600 40.985400 -0.000006 -0.000013 -0.702709 18.337900 -67.885400 11.754300 -0.000000 0.000003 -0.000822 0.180470 -9.256250 -2.192510 6.469440 -0.000001 178.003000 10.648100 -178.323000 -39.081100 -0.002282 -0.040193 0.008152 -0.025917 10.522600 -40.985400 0.000008 0.000006 -4.546410 7.106850 -66.196000 -11.754300 -0.000006 -0.000006 -0.010547 0.275349 -5.385540
0.000000 0.000000 0.000000 0.000000 0.000000 -0.000000 -1.479680 93.314300 -0.421548 88.062400 2.822200 0.852030 15.735700 0.000005 -0.000001 68.440900 85.894200 -59.896300 8.984550 -0.406207 -0.000000 0.196998 -3.577700 17.090000 16.377300 -0.000001 -0.000001 0.634651 2.290020 8.093290 6.456720 -0.000001 -0.000000 -16.856400 -1.532070 18.583600 12.994200 -0.242716 4.980390 -88.140100 -3.970540 -64.875400 5.348090 -0.000007 -0.000001 -46.348500 -57.993300 -77.817500 24.328600 0.000019 0.000005 -0.000259 11.979300 -0.000000 22.291600 -0.000001 0.000005 1.299240 3.951660 24.986100 12.994500 -0.242716 -4.980390 88.953900 2.518520 -67.435300 -5.348130 -0.000001 -0.000004 -64.911000 -0.205805 -10.066300 -24.328900 0.000322 -0.000009 0.030329 0.088895 -19.454100 -22.291500 -0.000108 -0.000004 8.707780 5.243060 1.615610 -2.192480 -6.469440 -0.000000 -172.633000 -11.300900 -1.040950 39.081100 -0.000007 -0.000012 -0.001032 0.004066 14.236500 40.985400 -0.000006 -0.000013 -0.759603 18.252800 -67.833800 11.754300 -0.000000 0.000003 -0.000657 0.178029 -9.355410 -2.192510 6.469440 -0.000001 178.059000 10.289000 -178.391000 -39.081100 -0.002282 -0.040193 0.007570 -0.023128 10.368300 -40.985400 0.000008 0.000006 -4.626640 6.977080 -66.087700 -11.754300 -0.000006 -0.000006 -0.010433 0.274510 -5.419880
0.000000 0.000000 0.000000 0.000000 0.000000 -0.000000 -1.504790 93.308200 -0.385101 88.077200 2.597300 0.795418 15.735700 0.000005 -0.000001 69.785000 85.943200 -61.304800 8.984550 -0.406207 -0.000000 0.154783 -3.362910 16.959100 16.377300 -0.000001 -0.000001 0.489273 2.229340 8.282310 6.456720 -0.000001 -0.000000 -16.671800 -1.472980 18.643900 12.994200 -0.242716 4.980390 -88.296600 -3.640450 -64.902600 5.348090 -0.000007 -0.000001 -48.420000 -58.012400 -77.384100 24.328600 0.000019 0.000005 0.000604 6.745170 -0.000000 22.291600 -0.000001 0.000005 -1.208280 3.620840 29.378200 12.994500 -0.242716 -4.980390 88.999500 2.412550 -67.468000 -5.348130 -0.000001 -0.000004 -65.036100 -0.672466 -9.378600 -24.328900 0.000322 -0.000009 0.134679 0.401717 -18.684400 -22.291500 -0.000108 -0.000004 8.376900 5.247260 1.504900 -2.192480 -6.469440 -0.000000 -172.613000 -11.490200 -1.010790 39.081100 -0.000007 -0.000012 -0.001366 0.005404 14.186100 40.985400 -0.000006 -0.000013 -0.792151 18.267000 -67.813700 11.754300 -0.000000 0.000003 -0.000822 0.180465 -9.256420 -2.192510 6.469440 -0.000001 178.100000 10.056800 -178.501000 -39.081100 -0.002282 -0.040193 0.008726 -0.029142 10.475600 -40.985400 0.000008 0.000006 -4.482820 6.933170 -66.202900 -11.754300 -0.000006 -0.000006 -0.010351 0.273905 -5.444620
